<svg viewBox="0 0 512 512" xmlns="http://www.w3.org/2000/svg" xmlns:xlink="http://www.w3.org/1999/xlink">
   <g><path d="m453.979 86.071h-114.122v-27.69c0-22.699-18.467-41.167-41.167-41.167h-85.38c-22.699 0-41.167 18.468-41.167 41.167v27.69h-114.122c-31.993 0-58.021 26.029-58.021 58.021v292.673c0 31.993 26.028 58.021 58.021 58.021h395.958c31.993 0 58.021-26.028 58.021-58.021v-292.673c0-31.992-26.028-58.021-58.021-58.021zm-251.836-27.69c0-6.157 5.009-11.167 11.167-11.167h85.381c6.157 0 11.167 5.01 11.167 11.167v27.69h-107.715zm-144.122 57.69h395.958c15.451 0 28.021 12.57 28.021 28.021v12.358l-226 24.214-226-24.214v-12.358c0-15.45 12.57-28.021 28.021-28.021zm395.958 348.715h-395.958c-15.451 0-28.021-12.57-28.021-28.021v-250.143l224.402 24.043c.531.057 1.065.085 1.598.085s1.067-.028 1.598-.085l224.402-24.043v250.143c0 15.451-12.57 28.021-28.021 28.021z"/><path d="m304.097 246.355v-7.54c0-8.284-6.716-15-15-15s-15 6.716-15 15v2.2h-37.077v-2.2c0-8.284-6.716-15-15-15s-15 6.716-15 15v2.2h-11.22c-8.284 0-15 6.716-15 15s6.716 15 15 15h2.2v107.6h-2.2c-8.284 0-15 6.716-15 15s6.716 15 15 15h11.22v2.2c0 8.284 6.716 15 15 15s15-6.716 15-15v-2.2h37.077v2.2c0 8.284 6.716 15 15 15s15-6.716 15-15v-7.54c16.064-8.163 27.103-24.841 27.103-44.06 0-13.364-5.343-25.498-13.995-34.4 8.652-8.902 13.995-21.036 13.995-34.4 0-19.22-11.039-35.898-27.103-44.06zm-2.897 112.859c0 10.697-8.703 19.4-19.4 19.4h-53.8v-38.8h53.8c10.697 0 19.4 8.703 19.4 19.4zm-73.2-49.4v-38.8h53.8c10.697 0 19.4 8.702 19.4 19.399s-8.703 19.4-19.4 19.4h-53.8z"/></g>
</svg>
